<mxfile host="Electron" agent="Mozilla/5.0 (Windows NT 10.0; Win64; x64) AppleWebKit/537.36 (KHTML, like Gecko) draw.io/26.0.4 Chrome/128.0.6613.186 Electron/32.2.5 Safari/537.36" version="26.0.4">
  <diagram name="Page-1" id="e7e014a7-5840-1c2e-5031-d8a46d1fe8dd">
    <mxGraphModel dx="2200" dy="1430" grid="0" gridSize="10" guides="1" tooltips="1" connect="1" arrows="1" fold="1" page="0" pageScale="1" pageWidth="1169" pageHeight="826" background="none" math="0" shadow="0">
      <root>
        <mxCell id="0" />
        <mxCell id="1" parent="0" />
        <mxCell id="2" value="Constituent" style="swimlane;whiteSpace=wrap;fontSize=20;fontStyle=1;strokeWidth=2;" parent="1" vertex="1">
          <mxGeometry x="164.5" y="128" width="280" height="1339" as="geometry" />
        </mxCell>
        <mxCell id="KScSu3WFuRk35CM9SM2x-66" style="edgeStyle=orthogonalEdgeStyle;rounded=1;orthogonalLoop=1;jettySize=auto;html=1;exitX=1;exitY=0.5;exitDx=0;exitDy=0;strokeWidth=2;curved=0;" edge="1" parent="2" source="KScSu3WFuRk35CM9SM2x-47" target="KScSu3WFuRk35CM9SM2x-60">
          <mxGeometry relative="1" as="geometry" />
        </mxCell>
        <mxCell id="KScSu3WFuRk35CM9SM2x-47" value="Navigate to WebApp" style="fontSize=12;fontStyle=1;strokeWidth=2;whiteSpace=wrap;rounded=1;" vertex="1" parent="2">
          <mxGeometry x="4.5" y="99" width="110" height="50" as="geometry" />
        </mxCell>
        <mxCell id="KScSu3WFuRk35CM9SM2x-50" value="Provide Username and Password" style="fontSize=12;fontStyle=1;strokeWidth=2;whiteSpace=wrap;rounded=1;" vertex="1" parent="2">
          <mxGeometry x="11.5" y="260" width="110" height="50" as="geometry" />
        </mxCell>
        <mxCell id="KScSu3WFuRk35CM9SM2x-65" style="edgeStyle=orthogonalEdgeStyle;rounded=1;orthogonalLoop=1;jettySize=auto;html=1;strokeWidth=2;curved=0;" edge="1" parent="2" source="KScSu3WFuRk35CM9SM2x-59" target="KScSu3WFuRk35CM9SM2x-47">
          <mxGeometry relative="1" as="geometry" />
        </mxCell>
        <mxCell id="KScSu3WFuRk35CM9SM2x-59" value="" style="ellipse;shape=startState;fontSize=20;fontStyle=1;strokeWidth=2;fillColor=#000000;" vertex="1" parent="2">
          <mxGeometry x="44.5" y="37" width="30" height="30" as="geometry" />
        </mxCell>
        <mxCell id="KScSu3WFuRk35CM9SM2x-70" style="edgeStyle=orthogonalEdgeStyle;rounded=1;orthogonalLoop=1;jettySize=auto;html=1;entryX=0.25;entryY=0;entryDx=0;entryDy=0;exitX=0;exitY=0.5;exitDx=0;exitDy=0;strokeWidth=2;curved=0;" edge="1" parent="2" source="KScSu3WFuRk35CM9SM2x-60" target="KScSu3WFuRk35CM9SM2x-50">
          <mxGeometry relative="1" as="geometry" />
        </mxCell>
        <mxCell id="KScSu3WFuRk35CM9SM2x-60" value="Login &#xa;or &#xa;Register" style="rhombus;fontSize=12;fontStyle=1;strokeWidth=2;whiteSpace=wrap;" vertex="1" parent="2">
          <mxGeometry x="88.5" y="158" width="140" height="70" as="geometry" />
        </mxCell>
        <mxCell id="KScSu3WFuRk35CM9SM2x-61" value="Provide valid credentials" style="fontSize=12;fontStyle=1;strokeWidth=2;whiteSpace=wrap;rounded=1;" vertex="1" parent="2">
          <mxGeometry x="159.5" y="246" width="110" height="50" as="geometry" />
        </mxCell>
        <mxCell id="KScSu3WFuRk35CM9SM2x-68" value="&lt;b&gt;&lt;font style=&quot;font-size: 11px;&quot;&gt;Register&lt;/font&gt;&lt;/b&gt;" style="text;html=1;align=center;verticalAlign=middle;resizable=0;points=[];autosize=1;strokeColor=none;fillColor=none;strokeWidth=2;" vertex="1" parent="2">
          <mxGeometry x="222.5" y="167" width="62" height="26" as="geometry" />
        </mxCell>
        <mxCell id="KScSu3WFuRk35CM9SM2x-71" value="&lt;b&gt;&lt;font style=&quot;font-size: 11px;&quot;&gt;Login&lt;/font&gt;&lt;/b&gt;" style="text;html=1;align=center;verticalAlign=middle;resizable=0;points=[];autosize=1;strokeColor=none;fillColor=none;strokeWidth=2;" vertex="1" parent="2">
          <mxGeometry x="40.5" y="167" width="48" height="26" as="geometry" />
        </mxCell>
        <mxCell id="KScSu3WFuRk35CM9SM2x-156" style="edgeStyle=orthogonalEdgeStyle;rounded=1;orthogonalLoop=1;jettySize=auto;html=1;strokeWidth=2;curved=0;" edge="1" parent="2" source="KScSu3WFuRk35CM9SM2x-97" target="KScSu3WFuRk35CM9SM2x-135">
          <mxGeometry relative="1" as="geometry" />
        </mxCell>
        <mxCell id="KScSu3WFuRk35CM9SM2x-97" value="File Complaint" style="fontSize=12;fontStyle=1;strokeWidth=2;whiteSpace=wrap;rounded=1;" vertex="1" parent="2">
          <mxGeometry x="65.5" y="509" width="110" height="50" as="geometry" />
        </mxCell>
        <mxCell id="KScSu3WFuRk35CM9SM2x-123" value="Privde Feedback" style="fontSize=12;fontStyle=1;strokeWidth=2;whiteSpace=wrap;rounded=1;" vertex="1" parent="2">
          <mxGeometry x="65.5" y="746" width="110" height="50" as="geometry" />
        </mxCell>
        <mxCell id="KScSu3WFuRk35CM9SM2x-126" value="View Statistics" style="fontSize=12;fontStyle=1;strokeWidth=2;whiteSpace=wrap;rounded=1;" vertex="1" parent="2">
          <mxGeometry x="65.5" y="862" width="110" height="50" as="geometry" />
        </mxCell>
        <mxCell id="KScSu3WFuRk35CM9SM2x-130" value="Display Statistics" style="fontSize=12;fontStyle=1;strokeWidth=2;whiteSpace=wrap;rounded=1;" vertex="1" parent="2">
          <mxGeometry x="65.5" y="954" width="110" height="50" as="geometry" />
        </mxCell>
        <mxCell id="KScSu3WFuRk35CM9SM2x-135" value="View Complaint" style="fontSize=12;fontStyle=1;strokeWidth=2;whiteSpace=wrap;rounded=1;" vertex="1" parent="2">
          <mxGeometry x="65.5" y="628" width="110" height="50" as="geometry" />
        </mxCell>
        <mxCell id="KScSu3WFuRk35CM9SM2x-138" value="View Event Calender " style="fontSize=12;fontStyle=1;strokeWidth=2;whiteSpace=wrap;rounded=1;" vertex="1" parent="2">
          <mxGeometry x="65.5" y="1017" width="110" height="50" as="geometry" />
        </mxCell>
        <mxCell id="KScSu3WFuRk35CM9SM2x-144" value="Participate in Survey" style="fontSize=12;fontStyle=1;strokeWidth=2;whiteSpace=wrap;rounded=1;" vertex="1" parent="2">
          <mxGeometry x="65.5" y="1086" width="110" height="50" as="geometry" />
        </mxCell>
        <mxCell id="KScSu3WFuRk35CM9SM2x-149" value="View Awareness Campaign" style="fontSize=12;fontStyle=1;strokeWidth=2;whiteSpace=wrap;rounded=1;" vertex="1" parent="2">
          <mxGeometry x="65.5" y="1186" width="110" height="50" as="geometry" />
        </mxCell>
        <mxCell id="KScSu3WFuRk35CM9SM2x-167" style="edgeStyle=orthogonalEdgeStyle;rounded=0;orthogonalLoop=1;jettySize=auto;html=1;entryX=0;entryY=0.5;entryDx=0;entryDy=0;strokeWidth=2;" edge="1" parent="2" source="KScSu3WFuRk35CM9SM2x-152" target="KScSu3WFuRk35CM9SM2x-153">
          <mxGeometry relative="1" as="geometry" />
        </mxCell>
        <mxCell id="KScSu3WFuRk35CM9SM2x-152" value="Logout" style="fontSize=12;fontStyle=1;strokeWidth=2;whiteSpace=wrap;rounded=1;" vertex="1" parent="2">
          <mxGeometry x="62.5" y="1273" width="74.8" height="34" as="geometry" />
        </mxCell>
        <mxCell id="KScSu3WFuRk35CM9SM2x-153" value="" style="ellipse;shape=endState;fontSize=20;fontStyle=1;strokeWidth=2;fillColor=#000000;" vertex="1" parent="2">
          <mxGeometry x="180.5" y="1275" width="30" height="30" as="geometry" />
        </mxCell>
        <mxCell id="KScSu3WFuRk35CM9SM2x-166" style="edgeStyle=orthogonalEdgeStyle;rounded=1;orthogonalLoop=1;jettySize=auto;html=1;entryX=0;entryY=0.5;entryDx=0;entryDy=0;strokeWidth=2;curved=0;" edge="1" parent="2" source="KScSu3WFuRk35CM9SM2x-155" target="KScSu3WFuRk35CM9SM2x-152">
          <mxGeometry relative="1" as="geometry">
            <Array as="points">
              <mxPoint x="42" y="1290" />
            </Array>
          </mxGeometry>
        </mxCell>
        <mxCell id="KScSu3WFuRk35CM9SM2x-155" value="" style="html=1;points=[];perimeter=orthogonalPerimeter;fillColor=strokeColor;rotation=90;strokeWidth=2;" vertex="1" parent="2">
          <mxGeometry x="44.5" y="1217" width="5" height="80" as="geometry" />
        </mxCell>
        <mxCell id="KScSu3WFuRk35CM9SM2x-157" style="edgeStyle=orthogonalEdgeStyle;rounded=1;orthogonalLoop=1;jettySize=auto;html=1;entryX=-0.044;entryY=0.909;entryDx=0;entryDy=0;entryPerimeter=0;strokeWidth=2;curved=0;" edge="1" parent="2" source="KScSu3WFuRk35CM9SM2x-135" target="KScSu3WFuRk35CM9SM2x-155">
          <mxGeometry relative="1" as="geometry">
            <Array as="points">
              <mxPoint x="14" y="653" />
            </Array>
          </mxGeometry>
        </mxCell>
        <mxCell id="KScSu3WFuRk35CM9SM2x-158" style="edgeStyle=orthogonalEdgeStyle;rounded=1;orthogonalLoop=1;jettySize=auto;html=1;strokeWidth=2;curved=0;" edge="1" parent="2" source="KScSu3WFuRk35CM9SM2x-123">
          <mxGeometry relative="1" as="geometry">
            <mxPoint x="25.5" y="1254" as="targetPoint" />
            <Array as="points">
              <mxPoint x="26" y="771" />
            </Array>
          </mxGeometry>
        </mxCell>
        <mxCell id="KScSu3WFuRk35CM9SM2x-159" style="edgeStyle=orthogonalEdgeStyle;rounded=1;orthogonalLoop=1;jettySize=auto;html=1;strokeWidth=2;curved=0;" edge="1" parent="2" source="KScSu3WFuRk35CM9SM2x-126">
          <mxGeometry relative="1" as="geometry">
            <mxPoint x="34.5" y="1254" as="targetPoint" />
            <Array as="points">
              <mxPoint x="35" y="887" />
              <mxPoint x="35" y="1211" />
              <mxPoint x="34" y="1211" />
            </Array>
          </mxGeometry>
        </mxCell>
        <mxCell id="KScSu3WFuRk35CM9SM2x-160" style="edgeStyle=orthogonalEdgeStyle;rounded=1;orthogonalLoop=1;jettySize=auto;html=1;entryX=-0.295;entryY=0.489;entryDx=0;entryDy=0;entryPerimeter=0;strokeWidth=2;curved=0;" edge="1" parent="2" source="KScSu3WFuRk35CM9SM2x-130" target="KScSu3WFuRk35CM9SM2x-155">
          <mxGeometry relative="1" as="geometry">
            <Array as="points">
              <mxPoint x="48" y="979" />
            </Array>
          </mxGeometry>
        </mxCell>
        <mxCell id="KScSu3WFuRk35CM9SM2x-163" style="edgeStyle=orthogonalEdgeStyle;rounded=1;orthogonalLoop=1;jettySize=auto;html=1;entryX=-0.133;entryY=0.396;entryDx=0;entryDy=0;entryPerimeter=0;strokeWidth=2;curved=0;" edge="1" parent="2" source="KScSu3WFuRk35CM9SM2x-144" target="KScSu3WFuRk35CM9SM2x-155">
          <mxGeometry relative="1" as="geometry">
            <Array as="points">
              <mxPoint x="55" y="1111" />
              <mxPoint x="55" y="1195" />
            </Array>
          </mxGeometry>
        </mxCell>
        <mxCell id="KScSu3WFuRk35CM9SM2x-165" style="edgeStyle=orthogonalEdgeStyle;rounded=1;orthogonalLoop=1;jettySize=auto;html=1;entryX=-0.043;entryY=0.159;entryDx=0;entryDy=0;entryPerimeter=0;exitX=0.077;exitY=1.008;exitDx=0;exitDy=0;exitPerimeter=0;strokeWidth=2;curved=0;" edge="1" parent="2" source="KScSu3WFuRk35CM9SM2x-149" target="KScSu3WFuRk35CM9SM2x-155">
          <mxGeometry relative="1" as="geometry">
            <Array as="points">
              <mxPoint x="74" y="1238" />
              <mxPoint x="74" y="1244" />
              <mxPoint x="74" y="1244" />
            </Array>
          </mxGeometry>
        </mxCell>
        <mxCell id="3" value="System " style="swimlane;whiteSpace=wrap;fontSize=20;fontStyle=1;strokeWidth=2;" parent="1" vertex="1">
          <mxGeometry x="444.5" y="128" width="278.5" height="1338" as="geometry" />
        </mxCell>
        <mxCell id="KScSu3WFuRk35CM9SM2x-75" style="edgeStyle=orthogonalEdgeStyle;rounded=0;orthogonalLoop=1;jettySize=auto;html=1;entryX=0.5;entryY=0;entryDx=0;entryDy=0;strokeWidth=2;" edge="1" parent="3" source="KScSu3WFuRk35CM9SM2x-49" target="KScSu3WFuRk35CM9SM2x-63">
          <mxGeometry relative="1" as="geometry" />
        </mxCell>
        <mxCell id="KScSu3WFuRk35CM9SM2x-49" value="Validates Information" style="fontSize=12;fontStyle=1;strokeWidth=2;whiteSpace=wrap;rounded=1;" vertex="1" parent="3">
          <mxGeometry x="33.5" y="327" width="110" height="50" as="geometry" />
        </mxCell>
        <mxCell id="KScSu3WFuRk35CM9SM2x-58" value="Display Registration Form" style="fontSize=12;fontStyle=1;strokeWidth=2;whiteSpace=wrap;rounded=1;" vertex="1" parent="3">
          <mxGeometry x="70.5" y="92" width="110" height="50" as="geometry" />
        </mxCell>
        <mxCell id="KScSu3WFuRk35CM9SM2x-81" style="edgeStyle=orthogonalEdgeStyle;rounded=1;orthogonalLoop=1;jettySize=auto;html=1;entryX=1;entryY=0.25;entryDx=0;entryDy=0;exitX=1;exitY=0.75;exitDx=0;exitDy=0;strokeWidth=2;curved=0;" edge="1" parent="3" source="KScSu3WFuRk35CM9SM2x-62" target="KScSu3WFuRk35CM9SM2x-64">
          <mxGeometry relative="1" as="geometry">
            <Array as="points">
              <mxPoint x="179" y="281" />
              <mxPoint x="179" y="388" />
              <mxPoint x="178" y="388" />
              <mxPoint x="178" y="504" />
            </Array>
          </mxGeometry>
        </mxCell>
        <mxCell id="KScSu3WFuRk35CM9SM2x-62" value="Save Data" style="fontSize=12;fontStyle=1;strokeWidth=2;whiteSpace=wrap;rounded=1;" vertex="1" parent="3">
          <mxGeometry x="87.5" y="253" width="81.4" height="37" as="geometry" />
        </mxCell>
        <mxCell id="KScSu3WFuRk35CM9SM2x-79" style="edgeStyle=orthogonalEdgeStyle;rounded=1;orthogonalLoop=1;jettySize=auto;html=1;strokeWidth=2;curved=0;" edge="1" parent="3" source="KScSu3WFuRk35CM9SM2x-63" target="KScSu3WFuRk35CM9SM2x-64">
          <mxGeometry relative="1" as="geometry" />
        </mxCell>
        <mxCell id="KScSu3WFuRk35CM9SM2x-63" value="Valid Input?" style="rhombus;fontSize=12;fontStyle=1;strokeWidth=2;whiteSpace=wrap;" vertex="1" parent="3">
          <mxGeometry x="28.5" y="406" width="120" height="60" as="geometry" />
        </mxCell>
        <mxCell id="KScSu3WFuRk35CM9SM2x-64" value="Display Dashboard" style="fontSize=12;fontStyle=1;strokeWidth=2;whiteSpace=wrap;rounded=1;" vertex="1" parent="3">
          <mxGeometry x="33.5" y="492" width="110" height="50" as="geometry" />
        </mxCell>
        <mxCell id="KScSu3WFuRk35CM9SM2x-77" value="&lt;b&gt;&lt;font style=&quot;font-size: 11px;&quot;&gt;No&lt;/font&gt;&lt;/b&gt;" style="text;html=1;align=center;verticalAlign=middle;resizable=0;points=[];autosize=1;strokeColor=none;fillColor=none;strokeWidth=2;" vertex="1" parent="3">
          <mxGeometry x="0.5" y="409" width="33" height="26" as="geometry" />
        </mxCell>
        <mxCell id="KScSu3WFuRk35CM9SM2x-78" value="&lt;b&gt;&lt;font style=&quot;font-size: 11px;&quot;&gt;Yes&lt;/font&gt;&lt;/b&gt;" style="text;html=1;align=center;verticalAlign=middle;resizable=0;points=[];autosize=1;strokeColor=none;fillColor=none;strokeWidth=2;" vertex="1" parent="3">
          <mxGeometry x="87.5" y="466" width="37" height="26" as="geometry" />
        </mxCell>
        <mxCell id="KScSu3WFuRk35CM9SM2x-96" value="&lt;b&gt;&lt;font style=&quot;font-size: 11px;&quot;&gt;No&lt;/font&gt;&lt;/b&gt;" style="text;html=1;align=center;verticalAlign=middle;resizable=0;points=[];autosize=1;strokeColor=none;fillColor=none;strokeWidth=2;" vertex="1" parent="3">
          <mxGeometry x="143.5" y="406" width="33" height="26" as="geometry" />
        </mxCell>
        <mxCell id="KScSu3WFuRk35CM9SM2x-103" style="edgeStyle=orthogonalEdgeStyle;rounded=1;orthogonalLoop=1;jettySize=auto;html=1;strokeWidth=2;curved=0;" edge="1" parent="3" source="KScSu3WFuRk35CM9SM2x-98" target="KScSu3WFuRk35CM9SM2x-99">
          <mxGeometry relative="1" as="geometry" />
        </mxCell>
        <mxCell id="KScSu3WFuRk35CM9SM2x-104" style="edgeStyle=orthogonalEdgeStyle;rounded=1;orthogonalLoop=1;jettySize=auto;html=1;entryX=0.5;entryY=0;entryDx=0;entryDy=0;exitX=1;exitY=0.5;exitDx=0;exitDy=0;strokeWidth=2;curved=0;" edge="1" parent="3" source="KScSu3WFuRk35CM9SM2x-98" target="KScSu3WFuRk35CM9SM2x-102">
          <mxGeometry relative="1" as="geometry" />
        </mxCell>
        <mxCell id="KScSu3WFuRk35CM9SM2x-98" value="Valid Complaint" style="rhombus;fontSize=12;fontStyle=1;strokeWidth=2;whiteSpace=wrap;" vertex="1" parent="3">
          <mxGeometry x="25.5" y="553" width="120" height="60" as="geometry" />
        </mxCell>
        <mxCell id="KScSu3WFuRk35CM9SM2x-101" style="edgeStyle=orthogonalEdgeStyle;rounded=1;orthogonalLoop=1;jettySize=auto;html=1;entryX=0.5;entryY=0;entryDx=0;entryDy=0;strokeWidth=2;curved=0;" edge="1" parent="3" source="KScSu3WFuRk35CM9SM2x-99" target="KScSu3WFuRk35CM9SM2x-100">
          <mxGeometry relative="1" as="geometry" />
        </mxCell>
        <mxCell id="KScSu3WFuRk35CM9SM2x-99" value="Send Rejection Notification" style="fontSize=12;fontStyle=1;strokeWidth=2;whiteSpace=wrap;rounded=1;" vertex="1" parent="3">
          <mxGeometry x="30.5" y="650" width="110" height="50" as="geometry" />
        </mxCell>
        <mxCell id="KScSu3WFuRk35CM9SM2x-100" value="" style="ellipse;shape=endState;fontSize=20;fontStyle=1;strokeWidth=2;fillColor=#000000;" vertex="1" parent="3">
          <mxGeometry x="70.5" y="727" width="30" height="30" as="geometry" />
        </mxCell>
        <mxCell id="KScSu3WFuRk35CM9SM2x-102" value="Forward Complaint" style="fontSize=12;fontStyle=1;strokeWidth=2;whiteSpace=wrap;rounded=1;" vertex="1" parent="3">
          <mxGeometry x="145.5" y="638" width="110" height="50" as="geometry" />
        </mxCell>
        <mxCell id="KScSu3WFuRk35CM9SM2x-105" value="&lt;b&gt;&lt;font style=&quot;font-size: 11px;&quot;&gt;No&lt;/font&gt;&lt;/b&gt;" style="text;html=1;align=center;verticalAlign=middle;resizable=0;points=[];autosize=1;strokeColor=none;fillColor=none;strokeWidth=2;" vertex="1" parent="3">
          <mxGeometry x="50.5" y="613" width="33" height="26" as="geometry" />
        </mxCell>
        <mxCell id="KScSu3WFuRk35CM9SM2x-106" value="&lt;b&gt;&lt;font style=&quot;font-size: 11px;&quot;&gt;Yes&lt;/font&gt;&lt;/b&gt;" style="text;html=1;align=center;verticalAlign=middle;resizable=0;points=[];autosize=1;strokeColor=none;fillColor=none;strokeWidth=2;" vertex="1" parent="3">
          <mxGeometry x="143.5" y="556" width="37" height="26" as="geometry" />
        </mxCell>
        <mxCell id="KScSu3WFuRk35CM9SM2x-117" value="Notify Constiuent" style="fontSize=12;fontStyle=1;strokeWidth=2;whiteSpace=wrap;rounded=1;" vertex="1" parent="3">
          <mxGeometry x="119.5" y="746" width="110" height="50" as="geometry" />
        </mxCell>
        <mxCell id="KScSu3WFuRk35CM9SM2x-132" style="edgeStyle=orthogonalEdgeStyle;rounded=1;orthogonalLoop=1;jettySize=auto;html=1;entryX=0.5;entryY=0;entryDx=0;entryDy=0;exitX=1;exitY=0.5;exitDx=0;exitDy=0;strokeWidth=2;curved=0;" edge="1" parent="3" source="KScSu3WFuRk35CM9SM2x-127" target="KScSu3WFuRk35CM9SM2x-128">
          <mxGeometry relative="1" as="geometry" />
        </mxCell>
        <mxCell id="KScSu3WFuRk35CM9SM2x-127" value="Collect Stats" style="fontSize=12;fontStyle=1;strokeWidth=2;whiteSpace=wrap;rounded=1;" vertex="1" parent="3">
          <mxGeometry x="33.5" y="807" width="110" height="50" as="geometry" />
        </mxCell>
        <mxCell id="KScSu3WFuRk35CM9SM2x-133" style="edgeStyle=orthogonalEdgeStyle;rounded=1;orthogonalLoop=1;jettySize=auto;html=1;strokeWidth=2;curved=0;" edge="1" parent="3" source="KScSu3WFuRk35CM9SM2x-128" target="KScSu3WFuRk35CM9SM2x-129">
          <mxGeometry relative="1" as="geometry" />
        </mxCell>
        <mxCell id="KScSu3WFuRk35CM9SM2x-128" value="Compute Stats" style="fontSize=12;fontStyle=1;strokeWidth=2;whiteSpace=wrap;rounded=1;" vertex="1" parent="3">
          <mxGeometry x="137.5" y="871" width="110" height="50" as="geometry" />
        </mxCell>
        <mxCell id="KScSu3WFuRk35CM9SM2x-129" value="Organize Stats" style="fontSize=12;fontStyle=1;strokeWidth=2;whiteSpace=wrap;rounded=1;" vertex="1" parent="3">
          <mxGeometry x="137.5" y="954" width="110" height="50" as="geometry" />
        </mxCell>
        <mxCell id="KScSu3WFuRk35CM9SM2x-137" value="Update Event Calender" style="fontSize=12;fontStyle=1;strokeWidth=2;whiteSpace=wrap;rounded=1;" vertex="1" parent="3">
          <mxGeometry x="95.5" y="1017" width="110" height="50" as="geometry" />
        </mxCell>
        <mxCell id="KScSu3WFuRk35CM9SM2x-142" value="Distribute Survey" style="fontSize=12;fontStyle=1;strokeWidth=2;whiteSpace=wrap;rounded=1;" vertex="1" parent="3">
          <mxGeometry x="95.5" y="1086" width="110" height="50" as="geometry" />
        </mxCell>
        <mxCell id="KScSu3WFuRk35CM9SM2x-146" value="Collect Response" style="fontSize=12;fontStyle=1;strokeWidth=2;whiteSpace=wrap;rounded=1;" vertex="1" parent="3">
          <mxGeometry x="95.5" y="1148" width="110" height="50" as="geometry" />
        </mxCell>
        <mxCell id="4" value="Representative " style="swimlane;whiteSpace=wrap;fontSize=20;fontStyle=1;strokeWidth=2;fillColor=default;" parent="1" vertex="1">
          <mxGeometry x="723.5" y="128" width="280" height="1338" as="geometry" />
        </mxCell>
        <mxCell id="13" value="" style="ellipse;shape=startState;fontSize=20;fontStyle=1;strokeWidth=2;fillColor=#000000;" parent="4" vertex="1">
          <mxGeometry x="49.5" y="33" width="30" height="30" as="geometry" />
        </mxCell>
        <mxCell id="KScSu3WFuRk35CM9SM2x-87" value="Provide valid credentials" style="fontSize=12;fontStyle=1;strokeWidth=2;whiteSpace=wrap;rounded=1;" vertex="1" parent="4">
          <mxGeometry x="8.5" y="237" width="110" height="50" as="geometry" />
        </mxCell>
        <mxCell id="KScSu3WFuRk35CM9SM2x-88" value="&lt;b&gt;&lt;font style=&quot;font-size: 11px;&quot;&gt;Register&lt;/font&gt;&lt;/b&gt;" style="text;html=1;align=center;verticalAlign=middle;resizable=0;points=[];autosize=1;strokeColor=none;fillColor=none;strokeWidth=2;" vertex="1" parent="4">
          <mxGeometry x="32.5" y="171" width="62" height="26" as="geometry" />
        </mxCell>
        <mxCell id="KScSu3WFuRk35CM9SM2x-89" value="&lt;b&gt;&lt;font style=&quot;font-size: 11px;&quot;&gt;Login&lt;/font&gt;&lt;/b&gt;" style="text;html=1;align=center;verticalAlign=middle;resizable=0;points=[];autosize=1;strokeColor=none;fillColor=none;strokeWidth=2;" vertex="1" parent="4">
          <mxGeometry x="228.5" y="171" width="48" height="26" as="geometry" />
        </mxCell>
        <mxCell id="KScSu3WFuRk35CM9SM2x-119" style="edgeStyle=orthogonalEdgeStyle;rounded=1;orthogonalLoop=1;jettySize=auto;html=1;strokeWidth=2;curved=0;" edge="1" parent="4" source="KScSu3WFuRk35CM9SM2x-107" target="KScSu3WFuRk35CM9SM2x-108">
          <mxGeometry relative="1" as="geometry" />
        </mxCell>
        <mxCell id="KScSu3WFuRk35CM9SM2x-107" value="Review Complaint" style="fontSize=12;fontStyle=1;strokeWidth=2;whiteSpace=wrap;rounded=1;" vertex="1" parent="4">
          <mxGeometry x="90" y="638" width="110" height="50" as="geometry" />
        </mxCell>
        <mxCell id="KScSu3WFuRk35CM9SM2x-108" value="Update Complaint Status" style="fontSize=12;fontStyle=1;strokeWidth=2;whiteSpace=wrap;rounded=1;" vertex="1" parent="4">
          <mxGeometry x="90.5" y="728" width="110" height="50" as="geometry" />
        </mxCell>
        <mxCell id="KScSu3WFuRk35CM9SM2x-136" value="Post Event " style="fontSize=12;fontStyle=1;strokeWidth=2;whiteSpace=wrap;rounded=1;" vertex="1" parent="4">
          <mxGeometry x="85" y="920" width="110" height="50" as="geometry" />
        </mxCell>
        <mxCell id="KScSu3WFuRk35CM9SM2x-141" value="Create Survey" style="fontSize=12;fontStyle=1;strokeWidth=2;whiteSpace=wrap;rounded=1;" vertex="1" parent="4">
          <mxGeometry x="85" y="1081" width="110" height="50" as="geometry" />
        </mxCell>
        <mxCell id="KScSu3WFuRk35CM9SM2x-148" value="Post Awareness Campaign" style="fontSize=12;fontStyle=1;strokeWidth=2;whiteSpace=wrap;rounded=1;" vertex="1" parent="4">
          <mxGeometry x="90" y="1186" width="110" height="50" as="geometry" />
        </mxCell>
        <mxCell id="KScSu3WFuRk35CM9SM2x-168" style="edgeStyle=orthogonalEdgeStyle;rounded=1;orthogonalLoop=1;jettySize=auto;html=1;entryX=1;entryY=0.5;entryDx=0;entryDy=0;strokeWidth=2;curved=0;" edge="1" parent="4" source="KScSu3WFuRk35CM9SM2x-169" target="KScSu3WFuRk35CM9SM2x-170">
          <mxGeometry relative="1" as="geometry" />
        </mxCell>
        <mxCell id="KScSu3WFuRk35CM9SM2x-169" value="Logout" style="fontSize=12;fontStyle=1;strokeWidth=2;whiteSpace=wrap;rounded=1;" vertex="1" parent="4">
          <mxGeometry x="195" y="1276" width="74.8" height="34" as="geometry" />
        </mxCell>
        <mxCell id="KScSu3WFuRk35CM9SM2x-170" value="" style="ellipse;shape=endState;fontSize=20;fontStyle=1;strokeWidth=2;fillColor=#000000;" vertex="1" parent="4">
          <mxGeometry x="64.5" y="1278" width="30" height="30" as="geometry" />
        </mxCell>
        <mxCell id="KScSu3WFuRk35CM9SM2x-177" style="edgeStyle=orthogonalEdgeStyle;rounded=1;orthogonalLoop=1;jettySize=auto;html=1;entryX=0.5;entryY=0;entryDx=0;entryDy=0;strokeWidth=2;curved=0;" edge="1" parent="4" source="KScSu3WFuRk35CM9SM2x-172" target="KScSu3WFuRk35CM9SM2x-169">
          <mxGeometry relative="1" as="geometry" />
        </mxCell>
        <mxCell id="KScSu3WFuRk35CM9SM2x-172" value="" style="html=1;points=[];perimeter=orthogonalPerimeter;fillColor=strokeColor;rotation=90;strokeWidth=2;" vertex="1" parent="4">
          <mxGeometry x="229.89999999999998" y="1205" width="5" height="80" as="geometry" />
        </mxCell>
        <mxCell id="KScSu3WFuRk35CM9SM2x-173" style="edgeStyle=orthogonalEdgeStyle;rounded=1;orthogonalLoop=1;jettySize=auto;html=1;entryX=-0.195;entryY=0.833;entryDx=0;entryDy=0;entryPerimeter=0;strokeWidth=2;curved=0;" edge="1" parent="4" source="KScSu3WFuRk35CM9SM2x-148" target="KScSu3WFuRk35CM9SM2x-172">
          <mxGeometry relative="1" as="geometry">
            <Array as="points">
              <mxPoint x="206" y="1216" />
            </Array>
          </mxGeometry>
        </mxCell>
        <mxCell id="KScSu3WFuRk35CM9SM2x-174" style="edgeStyle=orthogonalEdgeStyle;rounded=1;orthogonalLoop=1;jettySize=auto;html=1;entryX=-0.097;entryY=0.712;entryDx=0;entryDy=0;entryPerimeter=0;strokeWidth=2;curved=0;" edge="1" parent="4" source="KScSu3WFuRk35CM9SM2x-141" target="KScSu3WFuRk35CM9SM2x-172">
          <mxGeometry relative="1" as="geometry">
            <mxPoint x="215.5" y="1241" as="targetPoint" />
            <Array as="points">
              <mxPoint x="215" y="1106" />
            </Array>
          </mxGeometry>
        </mxCell>
        <mxCell id="KScSu3WFuRk35CM9SM2x-175" style="edgeStyle=orthogonalEdgeStyle;rounded=1;orthogonalLoop=1;jettySize=auto;html=1;entryX=-0.137;entryY=0.592;entryDx=0;entryDy=0;entryPerimeter=0;strokeWidth=2;curved=0;" edge="1" parent="4" source="KScSu3WFuRk35CM9SM2x-136" target="KScSu3WFuRk35CM9SM2x-172">
          <mxGeometry relative="1" as="geometry">
            <Array as="points">
              <mxPoint x="226" y="945" />
              <mxPoint x="226" y="1242" />
            </Array>
          </mxGeometry>
        </mxCell>
        <mxCell id="KScSu3WFuRk35CM9SM2x-176" style="edgeStyle=orthogonalEdgeStyle;rounded=1;orthogonalLoop=1;jettySize=auto;html=1;entryX=-0.144;entryY=0.277;entryDx=0;entryDy=0;entryPerimeter=0;jumpStyle=arc;strokeWidth=2;curved=0;" edge="1" parent="4" source="KScSu3WFuRk35CM9SM2x-108" target="KScSu3WFuRk35CM9SM2x-172">
          <mxGeometry relative="1" as="geometry">
            <Array as="points">
              <mxPoint x="250" y="753" />
              <mxPoint x="250" y="1010" />
            </Array>
          </mxGeometry>
        </mxCell>
        <mxCell id="KScSu3WFuRk35CM9SM2x-41" value="Department Complaint Handler" style="swimlane;whiteSpace=wrap;fontSize=20;fontStyle=1;strokeWidth=2;fillColor=default;" vertex="1" parent="1">
          <mxGeometry x="1004.5" y="128" width="343.5" height="1338" as="geometry" />
        </mxCell>
        <mxCell id="KScSu3WFuRk35CM9SM2x-114" style="edgeStyle=orthogonalEdgeStyle;rounded=1;orthogonalLoop=1;jettySize=auto;html=1;entryX=0.5;entryY=0;entryDx=0;entryDy=0;strokeWidth=2;curved=0;" edge="1" parent="KScSu3WFuRk35CM9SM2x-41" source="KScSu3WFuRk35CM9SM2x-110" target="KScSu3WFuRk35CM9SM2x-112">
          <mxGeometry relative="1" as="geometry" />
        </mxCell>
        <mxCell id="KScSu3WFuRk35CM9SM2x-110" value="Review Complaint" style="fontSize=12;fontStyle=1;strokeWidth=2;whiteSpace=wrap;rounded=1;" vertex="1" parent="KScSu3WFuRk35CM9SM2x-41">
          <mxGeometry x="83.5" y="639" width="110" height="50" as="geometry" />
        </mxCell>
        <mxCell id="KScSu3WFuRk35CM9SM2x-112" value="Update Complaint Status" style="fontSize=12;fontStyle=1;strokeWidth=2;whiteSpace=wrap;rounded=1;" vertex="1" parent="KScSu3WFuRk35CM9SM2x-41">
          <mxGeometry x="83.5" y="727" width="110" height="50" as="geometry" />
        </mxCell>
        <mxCell id="KScSu3WFuRk35CM9SM2x-181" style="edgeStyle=orthogonalEdgeStyle;rounded=1;orthogonalLoop=1;jettySize=auto;html=1;entryX=0.5;entryY=0;entryDx=0;entryDy=0;strokeWidth=2;curved=0;" edge="1" parent="KScSu3WFuRk35CM9SM2x-41" source="KScSu3WFuRk35CM9SM2x-179" target="KScSu3WFuRk35CM9SM2x-180">
          <mxGeometry relative="1" as="geometry" />
        </mxCell>
        <mxCell id="KScSu3WFuRk35CM9SM2x-179" value="Login" style="fontSize=12;fontStyle=1;strokeWidth=2;whiteSpace=wrap;rounded=1;" vertex="1" parent="KScSu3WFuRk35CM9SM2x-41">
          <mxGeometry x="148.5" y="134" width="77" height="35" as="geometry" />
        </mxCell>
        <mxCell id="KScSu3WFuRk35CM9SM2x-180" value="Provide Username and Password" style="fontSize=12;fontStyle=1;strokeWidth=2;whiteSpace=wrap;rounded=1;" vertex="1" parent="KScSu3WFuRk35CM9SM2x-41">
          <mxGeometry x="132" y="209" width="110" height="50" as="geometry" />
        </mxCell>
        <mxCell id="KScSu3WFuRk35CM9SM2x-182" style="edgeStyle=orthogonalEdgeStyle;rounded=1;orthogonalLoop=1;jettySize=auto;html=1;strokeWidth=2;curved=0;" edge="1" parent="KScSu3WFuRk35CM9SM2x-41" source="KScSu3WFuRk35CM9SM2x-178" target="KScSu3WFuRk35CM9SM2x-179">
          <mxGeometry relative="1" as="geometry" />
        </mxCell>
        <mxCell id="KScSu3WFuRk35CM9SM2x-178" value="" style="ellipse;shape=startState;fontSize=20;fontStyle=1;strokeWidth=2;fillColor=#000000;" vertex="1" parent="KScSu3WFuRk35CM9SM2x-41">
          <mxGeometry x="171.5" y="60" width="30" height="30" as="geometry" />
        </mxCell>
        <mxCell id="KScSu3WFuRk35CM9SM2x-188" style="edgeStyle=orthogonalEdgeStyle;rounded=1;orthogonalLoop=1;jettySize=auto;html=1;entryX=0.5;entryY=0;entryDx=0;entryDy=0;strokeWidth=2;curved=0;exitX=0.5;exitY=1;exitDx=0;exitDy=0;" edge="1" parent="KScSu3WFuRk35CM9SM2x-41" source="KScSu3WFuRk35CM9SM2x-189" target="KScSu3WFuRk35CM9SM2x-190">
          <mxGeometry relative="1" as="geometry">
            <mxPoint x="241.998787878788" y="991" as="sourcePoint" />
          </mxGeometry>
        </mxCell>
        <mxCell id="KScSu3WFuRk35CM9SM2x-189" value="Logout" style="fontSize=12;fontStyle=1;strokeWidth=2;whiteSpace=wrap;rounded=1;" vertex="1" parent="KScSu3WFuRk35CM9SM2x-41">
          <mxGeometry x="176" y="944" width="74.8" height="34" as="geometry" />
        </mxCell>
        <mxCell id="KScSu3WFuRk35CM9SM2x-190" value="" style="ellipse;shape=endState;fontSize=20;fontStyle=1;strokeWidth=2;fillColor=#000000;" vertex="1" parent="KScSu3WFuRk35CM9SM2x-41">
          <mxGeometry x="198.12" y="1141" width="30" height="30" as="geometry" />
        </mxCell>
        <mxCell id="KScSu3WFuRk35CM9SM2x-191" style="edgeStyle=orthogonalEdgeStyle;rounded=1;orthogonalLoop=1;jettySize=auto;html=1;entryX=0.5;entryY=0;entryDx=0;entryDy=0;strokeWidth=2;curved=0;exitX=1;exitY=0.5;exitDx=0;exitDy=0;" edge="1" parent="KScSu3WFuRk35CM9SM2x-41" source="KScSu3WFuRk35CM9SM2x-112" target="KScSu3WFuRk35CM9SM2x-189">
          <mxGeometry relative="1" as="geometry">
            <mxPoint x="213.41304347826076" y="915.5" as="sourcePoint" />
          </mxGeometry>
        </mxCell>
        <mxCell id="KScSu3WFuRk35CM9SM2x-67" style="edgeStyle=orthogonalEdgeStyle;rounded=1;orthogonalLoop=1;jettySize=auto;html=1;entryX=-0.006;entryY=0.446;entryDx=0;entryDy=0;entryPerimeter=0;strokeWidth=2;curved=0;" edge="1" parent="1" source="KScSu3WFuRk35CM9SM2x-60" target="KScSu3WFuRk35CM9SM2x-58">
          <mxGeometry relative="1" as="geometry" />
        </mxCell>
        <mxCell id="KScSu3WFuRk35CM9SM2x-72" style="edgeStyle=orthogonalEdgeStyle;rounded=1;orthogonalLoop=1;jettySize=auto;html=1;strokeWidth=2;curved=0;" edge="1" parent="1" source="KScSu3WFuRk35CM9SM2x-58" target="KScSu3WFuRk35CM9SM2x-61">
          <mxGeometry relative="1" as="geometry">
            <Array as="points">
              <mxPoint x="570" y="342" />
              <mxPoint x="379" y="342" />
            </Array>
          </mxGeometry>
        </mxCell>
        <mxCell id="KScSu3WFuRk35CM9SM2x-73" style="edgeStyle=orthogonalEdgeStyle;rounded=1;orthogonalLoop=1;jettySize=auto;html=1;strokeWidth=2;curved=0;" edge="1" parent="1" source="KScSu3WFuRk35CM9SM2x-61" target="KScSu3WFuRk35CM9SM2x-62">
          <mxGeometry relative="1" as="geometry" />
        </mxCell>
        <mxCell id="KScSu3WFuRk35CM9SM2x-74" style="edgeStyle=orthogonalEdgeStyle;rounded=1;orthogonalLoop=1;jettySize=auto;html=1;entryX=0;entryY=0.5;entryDx=0;entryDy=0;strokeWidth=2;curved=0;" edge="1" parent="1" source="KScSu3WFuRk35CM9SM2x-50" target="KScSu3WFuRk35CM9SM2x-49">
          <mxGeometry relative="1" as="geometry">
            <Array as="points">
              <mxPoint x="231" y="480" />
            </Array>
          </mxGeometry>
        </mxCell>
        <mxCell id="KScSu3WFuRk35CM9SM2x-76" style="edgeStyle=orthogonalEdgeStyle;rounded=1;orthogonalLoop=1;jettySize=auto;html=1;entryX=0.25;entryY=1;entryDx=0;entryDy=0;strokeWidth=2;curved=0;" edge="1" parent="1" source="KScSu3WFuRk35CM9SM2x-63" target="KScSu3WFuRk35CM9SM2x-50">
          <mxGeometry relative="1" as="geometry" />
        </mxCell>
        <mxCell id="KScSu3WFuRk35CM9SM2x-82" style="edgeStyle=orthogonalEdgeStyle;rounded=1;orthogonalLoop=1;jettySize=auto;html=1;exitX=1;exitY=0.5;exitDx=0;exitDy=0;strokeWidth=2;curved=0;" edge="1" parent="1" source="KScSu3WFuRk35CM9SM2x-83" target="KScSu3WFuRk35CM9SM2x-86">
          <mxGeometry relative="1" as="geometry" />
        </mxCell>
        <mxCell id="KScSu3WFuRk35CM9SM2x-83" value="Navigate to WebApp" style="fontSize=12;fontStyle=1;strokeWidth=2;whiteSpace=wrap;rounded=1;" vertex="1" parent="1">
          <mxGeometry x="733" y="231" width="110" height="50" as="geometry" />
        </mxCell>
        <mxCell id="KScSu3WFuRk35CM9SM2x-93" style="edgeStyle=orthogonalEdgeStyle;rounded=1;orthogonalLoop=1;jettySize=auto;html=1;entryX=1;entryY=0.5;entryDx=0;entryDy=0;flowAnimation=0;shadow=0;strokeWidth=2;jumpStyle=arc;curved=0;" edge="1" parent="1" source="KScSu3WFuRk35CM9SM2x-84" target="KScSu3WFuRk35CM9SM2x-49">
          <mxGeometry relative="1" as="geometry">
            <Array as="points">
              <mxPoint x="961" y="480" />
            </Array>
          </mxGeometry>
        </mxCell>
        <mxCell id="KScSu3WFuRk35CM9SM2x-84" value="Provide Username and Password" style="fontSize=12;fontStyle=1;strokeWidth=2;whiteSpace=wrap;rounded=1;" vertex="1" parent="1">
          <mxGeometry x="888" y="370" width="110" height="50" as="geometry" />
        </mxCell>
        <mxCell id="KScSu3WFuRk35CM9SM2x-85" style="edgeStyle=orthogonalEdgeStyle;rounded=1;orthogonalLoop=1;jettySize=auto;html=1;entryX=0.75;entryY=0;entryDx=0;entryDy=0;exitX=1;exitY=0.5;exitDx=0;exitDy=0;strokeWidth=2;curved=0;" edge="1" parent="1" source="KScSu3WFuRk35CM9SM2x-86" target="KScSu3WFuRk35CM9SM2x-84">
          <mxGeometry relative="1" as="geometry">
            <Array as="points">
              <mxPoint x="970" y="325" />
              <mxPoint x="970" y="340" />
              <mxPoint x="971" y="340" />
            </Array>
          </mxGeometry>
        </mxCell>
        <mxCell id="KScSu3WFuRk35CM9SM2x-91" style="edgeStyle=orthogonalEdgeStyle;rounded=1;orthogonalLoop=1;jettySize=auto;html=1;entryX=1;entryY=0.5;entryDx=0;entryDy=0;strokeWidth=2;curved=0;" edge="1" parent="1" source="KScSu3WFuRk35CM9SM2x-86" target="KScSu3WFuRk35CM9SM2x-58">
          <mxGeometry relative="1" as="geometry">
            <Array as="points">
              <mxPoint x="701" y="325" />
              <mxPoint x="701" y="245" />
            </Array>
          </mxGeometry>
        </mxCell>
        <mxCell id="KScSu3WFuRk35CM9SM2x-86" value="Login &#xa;or &#xa;Register" style="rhombus;fontSize=12;fontStyle=1;strokeWidth=2;whiteSpace=wrap;" vertex="1" parent="1">
          <mxGeometry x="817" y="290" width="140" height="70" as="geometry" />
        </mxCell>
        <mxCell id="KScSu3WFuRk35CM9SM2x-90" style="edgeStyle=orthogonalEdgeStyle;rounded=0;orthogonalLoop=1;jettySize=auto;html=1;strokeWidth=2;" edge="1" parent="1" source="13" target="KScSu3WFuRk35CM9SM2x-83">
          <mxGeometry relative="1" as="geometry" />
        </mxCell>
        <mxCell id="KScSu3WFuRk35CM9SM2x-92" style="edgeStyle=orthogonalEdgeStyle;rounded=1;orthogonalLoop=1;jettySize=auto;html=1;strokeWidth=2;curved=0;" edge="1" parent="1" source="KScSu3WFuRk35CM9SM2x-58" target="KScSu3WFuRk35CM9SM2x-87">
          <mxGeometry relative="1" as="geometry">
            <Array as="points">
              <mxPoint x="570" y="342" />
              <mxPoint x="788" y="342" />
            </Array>
          </mxGeometry>
        </mxCell>
        <mxCell id="KScSu3WFuRk35CM9SM2x-94" style="edgeStyle=orthogonalEdgeStyle;rounded=1;orthogonalLoop=1;jettySize=auto;html=1;entryX=0.5;entryY=1;entryDx=0;entryDy=0;strokeWidth=2;jumpStyle=arc;curved=0;" edge="1" parent="1" source="KScSu3WFuRk35CM9SM2x-63" target="KScSu3WFuRk35CM9SM2x-84">
          <mxGeometry relative="1" as="geometry" />
        </mxCell>
        <mxCell id="KScSu3WFuRk35CM9SM2x-95" style="edgeStyle=orthogonalEdgeStyle;rounded=1;orthogonalLoop=1;jettySize=auto;html=1;entryX=1;entryY=0.25;entryDx=0;entryDy=0;strokeWidth=2;curved=0;" edge="1" parent="1" source="KScSu3WFuRk35CM9SM2x-87" target="KScSu3WFuRk35CM9SM2x-62">
          <mxGeometry relative="1" as="geometry" />
        </mxCell>
        <mxCell id="KScSu3WFuRk35CM9SM2x-109" style="edgeStyle=orthogonalEdgeStyle;rounded=0;orthogonalLoop=1;jettySize=auto;html=1;strokeWidth=2;" edge="1" parent="1" source="KScSu3WFuRk35CM9SM2x-102" target="KScSu3WFuRk35CM9SM2x-107">
          <mxGeometry relative="1" as="geometry" />
        </mxCell>
        <mxCell id="KScSu3WFuRk35CM9SM2x-111" style="edgeStyle=orthogonalEdgeStyle;rounded=1;orthogonalLoop=1;jettySize=auto;html=1;entryX=0.5;entryY=0;entryDx=0;entryDy=0;exitX=0.752;exitY=0.019;exitDx=0;exitDy=0;exitPerimeter=0;strokeWidth=2;curved=0;" edge="1" parent="1" source="KScSu3WFuRk35CM9SM2x-102" target="KScSu3WFuRk35CM9SM2x-110">
          <mxGeometry relative="1" as="geometry">
            <Array as="points">
              <mxPoint x="673" y="737" />
              <mxPoint x="1142" y="737" />
            </Array>
          </mxGeometry>
        </mxCell>
        <mxCell id="KScSu3WFuRk35CM9SM2x-116" style="edgeStyle=orthogonalEdgeStyle;rounded=1;orthogonalLoop=1;jettySize=auto;html=1;entryX=1;entryY=0.75;entryDx=0;entryDy=0;exitX=0.5;exitY=1;exitDx=0;exitDy=0;jumpStyle=arc;strokeWidth=2;curved=0;" edge="1" parent="1" source="KScSu3WFuRk35CM9SM2x-112" target="KScSu3WFuRk35CM9SM2x-117">
          <mxGeometry relative="1" as="geometry">
            <mxPoint x="1143" y="875" as="sourcePoint" />
            <mxPoint x="749.5" y="912" as="targetPoint" />
            <Array as="points">
              <mxPoint x="1142" y="912" />
            </Array>
          </mxGeometry>
        </mxCell>
        <mxCell id="KScSu3WFuRk35CM9SM2x-120" style="edgeStyle=orthogonalEdgeStyle;rounded=1;orthogonalLoop=1;jettySize=auto;html=1;entryX=0;entryY=0.5;entryDx=0;entryDy=0;strokeWidth=2;curved=0;" edge="1" parent="1" source="KScSu3WFuRk35CM9SM2x-97" target="KScSu3WFuRk35CM9SM2x-98">
          <mxGeometry relative="1" as="geometry" />
        </mxCell>
        <mxCell id="KScSu3WFuRk35CM9SM2x-124" style="edgeStyle=orthogonalEdgeStyle;rounded=1;orthogonalLoop=1;jettySize=auto;html=1;entryX=1;entryY=0.5;entryDx=0;entryDy=0;strokeWidth=2;curved=0;" edge="1" parent="1" source="KScSu3WFuRk35CM9SM2x-117" target="KScSu3WFuRk35CM9SM2x-123">
          <mxGeometry relative="1" as="geometry" />
        </mxCell>
        <mxCell id="KScSu3WFuRk35CM9SM2x-131" style="edgeStyle=orthogonalEdgeStyle;rounded=1;orthogonalLoop=1;jettySize=auto;html=1;entryX=0;entryY=0.5;entryDx=0;entryDy=0;strokeWidth=2;curved=0;" edge="1" parent="1" source="KScSu3WFuRk35CM9SM2x-126" target="KScSu3WFuRk35CM9SM2x-127">
          <mxGeometry relative="1" as="geometry" />
        </mxCell>
        <mxCell id="KScSu3WFuRk35CM9SM2x-134" style="edgeStyle=orthogonalEdgeStyle;rounded=1;orthogonalLoop=1;jettySize=auto;html=1;strokeWidth=2;curved=0;" edge="1" parent="1" source="KScSu3WFuRk35CM9SM2x-129" target="KScSu3WFuRk35CM9SM2x-130">
          <mxGeometry relative="1" as="geometry" />
        </mxCell>
        <mxCell id="KScSu3WFuRk35CM9SM2x-115" style="edgeStyle=orthogonalEdgeStyle;rounded=1;orthogonalLoop=1;jettySize=auto;html=1;entryX=1.005;entryY=0.339;entryDx=0;entryDy=0;entryPerimeter=0;strokeWidth=2;curved=0;" edge="1" parent="1" target="KScSu3WFuRk35CM9SM2x-117">
          <mxGeometry relative="1" as="geometry">
            <mxPoint x="815" y="891" as="sourcePoint" />
            <mxPoint x="749.5" y="887" as="targetPoint" />
            <Array as="points">
              <mxPoint x="815" y="891" />
            </Array>
          </mxGeometry>
        </mxCell>
        <mxCell id="KScSu3WFuRk35CM9SM2x-139" style="edgeStyle=orthogonalEdgeStyle;rounded=1;orthogonalLoop=1;jettySize=auto;html=1;entryX=1;entryY=0.5;entryDx=0;entryDy=0;strokeWidth=2;curved=0;" edge="1" parent="1" source="KScSu3WFuRk35CM9SM2x-136" target="KScSu3WFuRk35CM9SM2x-137">
          <mxGeometry relative="1" as="geometry">
            <Array as="points">
              <mxPoint x="859" y="1170" />
            </Array>
          </mxGeometry>
        </mxCell>
        <mxCell id="KScSu3WFuRk35CM9SM2x-140" style="edgeStyle=orthogonalEdgeStyle;rounded=1;orthogonalLoop=1;jettySize=auto;html=1;strokeWidth=2;curved=0;" edge="1" parent="1" source="KScSu3WFuRk35CM9SM2x-137" target="KScSu3WFuRk35CM9SM2x-138">
          <mxGeometry relative="1" as="geometry" />
        </mxCell>
        <mxCell id="KScSu3WFuRk35CM9SM2x-143" style="edgeStyle=orthogonalEdgeStyle;rounded=1;orthogonalLoop=1;jettySize=auto;html=1;entryX=1.021;entryY=0.415;entryDx=0;entryDy=0;entryPerimeter=0;strokeWidth=2;curved=0;" edge="1" parent="1" source="KScSu3WFuRk35CM9SM2x-141" target="KScSu3WFuRk35CM9SM2x-142">
          <mxGeometry relative="1" as="geometry" />
        </mxCell>
        <mxCell id="KScSu3WFuRk35CM9SM2x-145" style="edgeStyle=orthogonalEdgeStyle;rounded=1;orthogonalLoop=1;jettySize=auto;html=1;entryX=1;entryY=0.5;entryDx=0;entryDy=0;strokeWidth=2;curved=0;" edge="1" parent="1" source="KScSu3WFuRk35CM9SM2x-142" target="KScSu3WFuRk35CM9SM2x-144">
          <mxGeometry relative="1" as="geometry" />
        </mxCell>
        <mxCell id="KScSu3WFuRk35CM9SM2x-147" style="edgeStyle=orthogonalEdgeStyle;rounded=1;orthogonalLoop=1;jettySize=auto;html=1;entryX=0;entryY=0.5;entryDx=0;entryDy=0;strokeWidth=2;curved=0;" edge="1" parent="1" source="KScSu3WFuRk35CM9SM2x-144" target="KScSu3WFuRk35CM9SM2x-146">
          <mxGeometry relative="1" as="geometry">
            <Array as="points">
              <mxPoint x="277" y="1301" />
            </Array>
          </mxGeometry>
        </mxCell>
        <mxCell id="KScSu3WFuRk35CM9SM2x-151" style="edgeStyle=orthogonalEdgeStyle;rounded=1;orthogonalLoop=1;jettySize=auto;html=1;strokeWidth=2;curved=0;" edge="1" parent="1" source="KScSu3WFuRk35CM9SM2x-148" target="KScSu3WFuRk35CM9SM2x-149">
          <mxGeometry relative="1" as="geometry" />
        </mxCell>
        <mxCell id="KScSu3WFuRk35CM9SM2x-184" style="edgeStyle=orthogonalEdgeStyle;rounded=1;orthogonalLoop=1;jettySize=auto;html=1;entryX=1;entryY=0.25;entryDx=0;entryDy=0;jumpStyle=arc;strokeWidth=2;curved=0;" edge="1" parent="1" source="KScSu3WFuRk35CM9SM2x-180" target="KScSu3WFuRk35CM9SM2x-49">
          <mxGeometry relative="1" as="geometry">
            <Array as="points">
              <mxPoint x="1191" y="467" />
              <mxPoint x="862" y="467" />
            </Array>
          </mxGeometry>
        </mxCell>
        <mxCell id="KScSu3WFuRk35CM9SM2x-185" style="edgeStyle=orthogonalEdgeStyle;rounded=1;orthogonalLoop=1;jettySize=auto;html=1;entryX=0.75;entryY=1;entryDx=0;entryDy=0;jumpStyle=arc;strokeWidth=2;curved=0;" edge="1" parent="1" source="KScSu3WFuRk35CM9SM2x-63" target="KScSu3WFuRk35CM9SM2x-180">
          <mxGeometry relative="1" as="geometry" />
        </mxCell>
      </root>
    </mxGraphModel>
  </diagram>
</mxfile>
